<svg width="22" height="20" viewBox="0 0 22 20" fill="none" xmlns="http://www.w3.org/2000/svg">
<path d="M8.61166 19C9.08505 19 9.4688 18.6162 9.4688 18.1428C9.4688 17.6695 9.08505 17.2857 8.61166 17.2857C8.13827 17.2857 7.75452 17.6695 7.75452 18.1428C7.75452 18.6162 8.13827 19 8.61166 19Z" stroke="#383C43" stroke-width="2" stroke-linecap="round" stroke-linejoin="round"/>
<path d="M18.0402 19C18.5136 19 18.8974 18.6162 18.8974 18.1428C18.8974 17.6695 18.5136 17.2857 18.0402 17.2857C17.5669 17.2857 17.1831 17.6695 17.1831 18.1428C17.1831 18.6162 17.5669 19 18.0402 19Z" stroke="#383C43" stroke-width="2" stroke-linecap="round" stroke-linejoin="round"/>
<path d="M1.75452 1H5.18309L7.48023 12.4771C7.55861 12.8718 7.77329 13.2263 8.0867 13.4785M6.04023 5.28571H20.6117L19.2402 12.4771C19.1618 12.8718 18.9472 13.2263 18.6338 13.4785C18.3204 13.7308 17.9282 13.8649 17.5259 13.8571H13" stroke="#383C43" stroke-width="2" stroke-linecap="round" stroke-linejoin="round"/>
</svg>
