<svg width="22" height="20" viewBox="0 0 22 20" fill="none" xmlns="http://www.w3.org/2000/svg">
<path d="M10.877 18.23L18.2295 10.8775L19.2312 9.87575C19.7142 9.39306 20.0972 8.81995 20.3586 8.18917C20.62 7.55839 20.7545 6.88229 20.7545 6.1995C20.7545 5.51672 20.62 4.84062 20.3586 4.20984C20.0972 3.57905 19.7142 3.00595 19.2312 2.52326C18.7486 2.04034 18.1755 1.65726 17.5447 1.39589C16.9139 1.13453 16.2378 1 15.555 1C14.8722 1 14.1961 1.13453 13.5653 1.39589C12.9346 1.65726 12.3614 2.04034 11.8788 2.52326L10.877 3.52501L9.87525 2.52326C8.90024 1.54826 7.57786 1.00051 6.199 1.00051C4.82014 1.00051 3.49775 1.54826 2.52275 2.52326C1.54775 3.49826 1 4.82064 1 6.1995C1 7.57836 1.54775 8.90075 2.52275 9.87575L3.5245 10.8775L7.20075 14.5538" stroke="#383C43" stroke-width="2" stroke-linecap="round" stroke-linejoin="round"/>
</svg>
