<svg width="93" height="48" viewBox="0 0 93 48" fill="none" xmlns="http://www.w3.org/2000/svg">
<path d="M26.6661 37.3325H21.9201V23.9459C21.9201 22.2039 21.5371 20.6926 20.7731 19.4131C20.0081 18.1336 18.977 17.1466 17.6798 16.4534C16.3816 15.7601 14.9509 15.4134 13.3866 15.4134C11.8223 15.4134 10.3816 15.7954 9.06679 16.5604C7.75087 17.3255 6.71095 18.3654 5.94701 19.6802C5.18197 20.9961 4.8 22.418 4.8 23.947C4.8 25.476 5.18197 26.952 5.94701 28.2668C6.71095 29.5827 7.75087 30.6226 9.06679 31.3866C10.3816 32.1516 11.8212 32.5336 13.3866 32.5336V37.3336C10.9689 37.3336 8.72787 36.7386 6.66679 35.5474C4.6046 34.3562 2.97847 32.7301 1.7873 30.6679C0.595032 28.6046 0 26.3647 0 23.9459C0 21.5271 0.595032 19.3512 1.7862 17.3056C2.97737 15.2622 4.59466 13.6438 6.63919 12.4526C8.68261 11.2615 10.9137 10.6664 13.3325 10.6664C15.7512 10.6664 18.0265 11.2184 20.0523 12.3202C22.0791 13.423 23.6876 14.9873 24.8787 17.0131C26.0699 19.0399 26.6649 21.3516 26.6649 23.947V37.3336L26.6661 37.3325Z" fill="#2C2C2C"/>
<path d="M31.1184 17.0131C32.3095 14.9862 33.918 13.4219 35.9449 12.3202C37.9717 11.2184 40.2116 10.6664 42.6646 10.6664C45.1176 10.6664 47.3134 11.2626 49.3579 12.4526C51.4025 13.6438 53.0197 15.2445 54.2109 17.2526C55.4021 19.2618 55.9971 21.4753 55.9971 23.8918V37.3314H51.1971V23.9448C51.1971 22.4158 50.8151 20.9939 50.0501 19.678C49.2851 18.3632 48.2451 17.3233 46.9303 16.5582C45.6144 15.7943 44.1749 15.4112 42.6105 15.4112C41.0462 15.4112 39.6144 15.7579 38.3173 16.4512C37.019 17.1444 35.9879 18.1314 35.224 19.4109C34.4589 20.6903 34.077 22.2028 34.077 23.9437V37.3303H29.33V23.9437C29.33 21.3483 29.925 19.0366 31.1162 17.0098L31.1184 17.0131Z" fill="#2C2C2C"/>
<path d="M85.3292 40.8519H80.5833V23.9459C80.5833 22.2039 80.2002 20.6926 79.4363 19.4131C78.6712 18.1336 77.6401 17.1467 76.343 16.4534C75.0447 15.7601 73.614 15.4134 72.0497 15.4134C70.4854 15.4134 69.0447 15.7954 67.7299 16.5605C66.414 17.3255 65.3741 18.3654 64.6101 19.6802C63.8451 20.9961 63.4631 22.418 63.4631 23.947C63.4631 25.476 63.8451 26.952 64.6101 28.2668C65.3741 29.5827 66.414 30.6226 67.7299 31.3866C69.0447 32.1516 70.4843 32.5336 72.0497 32.5336V37.3336C69.632 37.3336 67.391 36.7386 65.3299 35.5474C63.2677 34.3562 61.6416 32.7301 60.4504 30.6679C59.2582 28.6068 58.6642 26.3669 58.6642 23.9481C58.6642 21.5294 59.2593 19.3535 60.4504 17.3078C61.6416 15.2644 63.2589 13.646 65.3034 12.4548C67.3469 11.2637 69.5779 10.6686 71.9967 10.6686C74.4155 10.6686 76.6907 11.2206 78.7165 12.3224C80.7434 13.4252 82.3518 14.9895 83.543 17.0153C84.7342 19.0421 85.3292 21.3538 85.3292 23.9492V40.8552V40.8519ZM79.8635 42.8788C79.3833 43.412 78.8048 43.6791 78.1303 43.6791C77.49 43.6791 76.9215 43.3766 76.4236 42.7728C75.9257 42.1678 75.6773 41.5275 75.6773 40.853H70.9303C70.9303 41.8134 71.2681 42.8534 71.9437 43.9728C72.6182 45.0933 73.5169 46.0438 74.6363 46.8265C75.7568 47.6081 76.938 48 78.1833 48C79.4286 48 80.6539 47.6799 81.7568 47.0396C82.8585 46.3993 83.7307 45.5283 84.3699 44.4265C85.0101 43.3237 85.3303 42.1336 85.3303 40.853H80.5844C80.5844 41.6699 80.3437 42.3467 79.8646 42.8799L79.8635 42.8788Z" fill="#2C2C2C"/>
<path d="M92.7422 0V37.3325H87.9952V0H92.7422Z" fill="#2C2C2C"/>
</svg>
