<svg width="93" height="48" viewBox="0 0 93 48" fill="none" xmlns="http://www.w3.org/2000/svg">
<path d="M26.67 37.3299H21.92V23.9399C21.92 22.1999 21.54 20.6899 20.77 19.4099C20.01 18.1299 18.97 17.1399 17.68 16.4499C16.38 15.7599 14.95 15.4099 13.39 15.4099C11.83 15.4099 10.39 15.7899 9.07 16.5599C7.75 17.3299 6.71 18.3699 5.95 19.6799C5.18 20.9999 4.8 22.4199 4.8 23.9499C4.8 25.4799 5.18 26.9499 5.95 28.2699C6.71 29.5899 7.75 30.6299 9.07 31.3899C10.38 32.1499 11.82 32.5399 13.39 32.5399V37.3399C10.97 37.3399 8.73 36.7399 6.67 35.5499C4.61 34.3599 2.98 32.7299 1.79 30.6699C0.6 28.6099 0 26.3699 0 23.9499C0 21.5299 0.6 19.3599 1.79 17.3099C2.98 15.2699 4.6 13.6499 6.64 12.4599C8.68 11.2699 10.91 10.6699 13.33 10.6699C15.75 10.6699 18.02 11.2199 20.05 12.3199C22.08 13.4199 23.69 14.9899 24.88 17.0099C26.07 19.0399 26.67 21.3499 26.67 23.9399V37.3299Z" fill="#2C2C2C"/>
<path d="M31.12 17.0099C32.31 14.9799 33.92 13.4199 35.95 12.3199C37.98 11.2199 40.22 10.6699 42.67 10.6699C45.12 10.6699 47.32 11.2699 49.36 12.4599C51.4 13.6499 53.02 15.2499 54.21 17.2599C55.4 19.2699 56 21.4799 56 23.8999V37.3399H51.2V23.9499C51.2 22.4199 50.82 20.9999 50.05 19.6799C49.29 18.3699 48.24 17.3299 46.93 16.5599C45.61 15.7999 44.17 15.4099 42.61 15.4099C41.05 15.4099 39.61 15.7599 38.32 16.4499C37.02 17.1399 35.99 18.1299 35.23 19.4099C34.46 20.6899 34.08 22.1999 34.08 23.9399V37.3299H29.33V23.9399C29.33 21.3399 29.92 19.0299 31.12 17.0099Z" fill="#2C2C2C"/>
<path d="M92.74 0V37.33H87.99V0H92.74Z" fill="#2C2C2C"/>
<path d="M85.33 40.8497V23.9497C85.33 21.3497 84.73 19.0397 83.54 17.0197C82.35 14.9897 80.74 13.4297 78.71 12.3297C76.68 11.2297 74.41 10.6797 71.99 10.6797C69.57 10.6797 67.34 11.2797 65.3 12.4697C63.26 13.6597 61.64 15.2797 60.45 17.3197C59.26 19.3697 58.66 21.5397 58.66 23.9597C58.66 26.3797 59.25 28.6197 60.45 30.6797C61.64 32.7397 63.27 34.3697 65.33 35.5597C67.39 36.7497 69.63 37.3497 72.05 37.3497V32.5497C70.48 32.5497 69.04 32.1697 67.73 31.3997C66.41 30.6397 65.37 29.5997 64.61 28.2797C63.84 26.9697 63.46 25.4897 63.46 23.9597C63.46 22.4297 63.84 21.0097 64.61 19.6897C65.37 18.3797 66.41 17.3397 67.73 16.5697C69.04 15.7997 70.49 15.4197 72.05 15.4197C73.61 15.4197 75.04 15.7697 76.34 16.4597C77.64 17.1497 78.67 18.1397 79.43 19.4197C80.19 20.6997 80.58 22.2097 80.58 23.9497V40.8697C80.58 41.6797 80.34 42.3497 79.86 42.8797C79.38 43.4097 78.8 43.6797 78.13 43.6797C77.46 43.6797 76.92 43.3797 76.42 42.7697C75.92 42.1597 75.67 41.5197 75.67 40.8497H70.92C70.92 41.8097 71.26 42.8497 71.93 43.9697C72.6 45.0897 73.5 46.0397 74.62 46.8197C75.74 47.5997 76.92 47.9897 78.17 47.9897C79.42 47.9897 80.64 47.6697 81.74 47.0297C82.84 46.3897 83.71 45.5197 84.35 44.4197C84.99 43.3197 85.31 42.1297 85.31 40.8497H85.33Z" fill="#2C2C2C"/>
</svg>
